%TF.GenerationSoftware,KiCad,Pcbnew,9.0.5*%
%TF.CreationDate,2025-11-21T19:41:23+02:00*%
%TF.ProjectId,ProtoSwitch,50726f74-6f53-4776-9974-63682e6b6963,rev?*%
%TF.SameCoordinates,Original*%
%TF.FileFunction,Copper,L1,Top*%
%TF.FilePolarity,Positive*%
%FSLAX46Y46*%
G04 Gerber Fmt 4.6, Leading zero omitted, Abs format (unit mm)*
G04 Created by KiCad (PCBNEW 9.0.5) date 2025-11-21 19:41:23*
%MOMM*%
%LPD*%
G01*
G04 APERTURE LIST*
G04 Aperture macros list*
%AMRoundRect*
0 Rectangle with rounded corners*
0 $1 Rounding radius*
0 $2 $3 $4 $5 $6 $7 $8 $9 X,Y pos of 4 corners*
0 Add a 4 corners polygon primitive as box body*
4,1,4,$2,$3,$4,$5,$6,$7,$8,$9,$2,$3,0*
0 Add four circle primitives for the rounded corners*
1,1,$1+$1,$2,$3*
1,1,$1+$1,$4,$5*
1,1,$1+$1,$6,$7*
1,1,$1+$1,$8,$9*
0 Add four rect primitives between the rounded corners*
20,1,$1+$1,$2,$3,$4,$5,0*
20,1,$1+$1,$4,$5,$6,$7,0*
20,1,$1+$1,$6,$7,$8,$9,0*
20,1,$1+$1,$8,$9,$2,$3,0*%
G04 Aperture macros list end*
%TA.AperFunction,SMDPad,CuDef*%
%ADD10RoundRect,0.152400X0.609600X-1.063600X0.609600X1.063600X-0.609600X1.063600X-0.609600X-1.063600X0*%
%TD*%
%TA.AperFunction,ComponentPad*%
%ADD11C,1.524000*%
%TD*%
%TA.AperFunction,SMDPad,CuDef*%
%ADD12RoundRect,0.152400X-0.609600X1.063600X-0.609600X-1.063600X0.609600X-1.063600X0.609600X1.063600X0*%
%TD*%
%TA.AperFunction,ComponentPad*%
%ADD13C,1.815000*%
%TD*%
%TA.AperFunction,ComponentPad*%
%ADD14R,1.815000X1.815000*%
%TD*%
%TA.AperFunction,ComponentPad*%
%ADD15C,1.400000*%
%TD*%
%TA.AperFunction,ComponentPad*%
%ADD16C,2.200000*%
%TD*%
%TA.AperFunction,Conductor*%
%ADD17C,0.200000*%
%TD*%
G04 APERTURE END LIST*
D10*
%TO.P,U1,1,GPIO26/ADC0/A0*%
%TO.N,button1*%
X170851500Y-87045000D03*
D11*
X170851500Y-87880000D03*
D10*
%TO.P,U1,2,GPIO27/ADC1/A1*%
%TO.N,button2*%
X168311500Y-87045000D03*
D11*
X168311500Y-87880000D03*
D10*
%TO.P,U1,3,GPIO28/ADC2/A2*%
%TO.N,button3*%
X165771500Y-87045000D03*
D11*
X165771500Y-87880000D03*
D10*
%TO.P,U1,4,GPIO29/ADC3/A3*%
%TO.N,Led1*%
X163231500Y-87045000D03*
D11*
X163231500Y-87880000D03*
D10*
%TO.P,U1,5,GPIO6/SDA*%
%TO.N,Led2*%
X160691500Y-87045000D03*
D11*
X160691500Y-87880000D03*
D10*
%TO.P,U1,6,GPIO7/SCL*%
%TO.N,Led3*%
X158151500Y-87045000D03*
D11*
X158151500Y-87880000D03*
D10*
%TO.P,U1,7,GPIO0/TX*%
%TO.N,unconnected-(U1-GPIO0{slash}TX-Pad7)*%
X155611500Y-87045000D03*
D11*
X155611500Y-87880000D03*
%TO.P,U1,8,GPIO1/RX*%
%TO.N,unconnected-(U1-GPIO1{slash}RX-Pad8)*%
X155611500Y-103120000D03*
D12*
X155611500Y-103955000D03*
D11*
%TO.P,U1,9,GPIO2/SCK*%
%TO.N,unconnected-(U1-GPIO2{slash}SCK-Pad9)*%
X158151500Y-103120000D03*
D12*
X158151500Y-103955000D03*
D11*
%TO.P,U1,10,GPIO4/MISO*%
%TO.N,unconnected-(U1-GPIO4{slash}MISO-Pad10)*%
X160691500Y-103120000D03*
D12*
X160691500Y-103955000D03*
D11*
%TO.P,U1,11,GPIO3/MOSI*%
%TO.N,unconnected-(U1-GPIO3{slash}MOSI-Pad11)*%
X163231500Y-103120000D03*
D12*
X163231500Y-103955000D03*
D11*
%TO.P,U1,12,3V3*%
%TO.N,unconnected-(U1-3V3-Pad12)*%
X165771500Y-103120000D03*
D12*
X165771500Y-103955000D03*
D11*
%TO.P,U1,13,GND*%
%TO.N,GND*%
X168311500Y-103120000D03*
D12*
X168311500Y-103955000D03*
D11*
%TO.P,U1,14,VBUS*%
%TO.N,unconnected-(U1-VBUS-Pad14)*%
X170851500Y-103120000D03*
D12*
X170851500Y-103955000D03*
%TD*%
D13*
%TO.P,D3,A*%
%TO.N,Net-(D3-PadA)*%
X176851500Y-59880000D03*
D14*
%TO.P,D3,C*%
%TO.N,GND*%
X174311500Y-59880000D03*
%TD*%
D15*
%TO.P,R1,2*%
%TO.N,Led1*%
X136391500Y-53380000D03*
%TO.P,R1,1*%
%TO.N,Net-(D1-PadA)*%
X131311500Y-53380000D03*
%TD*%
D13*
%TO.P,D1,A*%
%TO.N,Net-(D1-PadA)*%
X135231500Y-59806500D03*
D14*
%TO.P,D1,C*%
%TO.N,GND*%
X132691500Y-59806500D03*
%TD*%
D16*
%TO.P,SW3,1,1*%
%TO.N,button3*%
X175191500Y-69226500D03*
%TO.P,SW3,2,2*%
%TO.N,GND*%
X168841500Y-71766500D03*
%TD*%
%TO.P,SW2,1,1*%
%TO.N,button2*%
X155771500Y-69226500D03*
%TO.P,SW2,2,2*%
%TO.N,GND*%
X149421500Y-71766500D03*
%TD*%
%TO.P,SW1,1,1*%
%TO.N,button1*%
X136231500Y-69306500D03*
%TO.P,SW1,2,2*%
%TO.N,GND*%
X129881500Y-71846500D03*
%TD*%
D15*
%TO.P,R3,1*%
%TO.N,Net-(D3-PadA)*%
X169311500Y-53380000D03*
%TO.P,R3,2*%
%TO.N,Led3*%
X174391500Y-53380000D03*
%TD*%
%TO.P,R2,1*%
%TO.N,Net-(D2-PadA)*%
X150311500Y-53380000D03*
%TO.P,R2,2*%
%TO.N,Led2*%
X155391500Y-53380000D03*
%TD*%
D14*
%TO.P,D2,C*%
%TO.N,GND*%
X151961500Y-59806500D03*
D13*
%TO.P,D2,A*%
%TO.N,Net-(D2-PadA)*%
X154501500Y-59806500D03*
%TD*%
D17*
%TO.N,button2*%
X168311500Y-81766500D02*
X168311500Y-87880000D01*
X170242500Y-79835500D02*
X168311500Y-81766500D01*
X170242500Y-71186186D02*
X170242500Y-79835500D01*
X178060000Y-63368686D02*
X170242500Y-71186186D01*
X178060000Y-59379422D02*
X178060000Y-63368686D01*
X171059578Y-52379000D02*
X178060000Y-59379422D01*
X168896872Y-52379000D02*
X171059578Y-52379000D01*
X155771500Y-65504372D02*
X168896872Y-52379000D01*
X155771500Y-69226500D02*
X155771500Y-65504372D01*
%TO.N,Net-(D3-PadA)*%
X170351500Y-53380000D02*
X176851500Y-59880000D01*
X169311500Y-53380000D02*
X170351500Y-53380000D01*
%TO.N,Net-(D1-PadA)*%
X135231500Y-57300000D02*
X135231500Y-59806500D01*
X131311500Y-53380000D02*
X135231500Y-57300000D01*
%TO.N,Net-(D2-PadA)*%
X150311500Y-55616500D02*
X154501500Y-59806500D01*
X150311500Y-53380000D02*
X150311500Y-55616500D01*
%TO.N,GND*%
X168841500Y-71766500D02*
X149421500Y-71766500D01*
X149341500Y-71846500D02*
X149421500Y-71766500D01*
X129881500Y-71846500D02*
X149341500Y-71846500D01*
X129881500Y-62616500D02*
X132691500Y-59806500D01*
X129881500Y-71846500D02*
X129881500Y-62616500D01*
X149421500Y-62346500D02*
X151961500Y-59806500D01*
X149421500Y-71766500D02*
X149421500Y-62346500D01*
X174311500Y-66296500D02*
X174311500Y-59880000D01*
X168841500Y-71766500D02*
X174311500Y-66296500D01*
%TD*%
M02*
