M48
; DRILL file {KiCad 9.0.5} date 2025-11-21T19:42:09+0200
; FORMAT={-:-/ absolute / metric / decimal}
; #@! TF.CreationDate,2025-11-21T19:42:09+02:00
; #@! TF.GenerationSoftware,Kicad,Pcbnew,9.0.5
; #@! TF.FileFunction,Plated,1,2,PTH
FMAT,2
METRIC
; #@! TA.AperFunction,Plated,PTH,ComponentDrill
T1C0.700
; #@! TA.AperFunction,Plated,PTH,ComponentDrill
T2C0.889
; #@! TA.AperFunction,Plated,PTH,ComponentDrill
T3C1.210
; #@! TA.AperFunction,Plated,PTH,ComponentDrill
T4C1.500
%
G90
G05
T1
X131.311Y-53.38
X136.392Y-53.38
X150.311Y-53.38
X155.391Y-53.38
X169.311Y-53.38
X174.391Y-53.38
T2
X155.612Y-87.88
X155.612Y-103.12
X158.151Y-87.88
X158.151Y-103.12
X160.691Y-87.88
X160.691Y-103.12
X163.231Y-87.88
X163.231Y-103.12
X165.772Y-87.88
X165.772Y-103.12
X168.311Y-87.88
X168.311Y-103.12
X170.851Y-87.88
X170.851Y-103.12
T3
X132.691Y-59.806
X135.231Y-59.806
X151.962Y-59.806
X154.501Y-59.806
X174.311Y-59.88
X176.851Y-59.88
T4
X129.881Y-71.846
X136.231Y-69.306
X149.421Y-71.766
X155.772Y-69.227
X168.841Y-71.766
X175.191Y-69.227
M30
